<svg width="147" height="52" viewBox="0 0 147 52" fill="none" xmlns="http://www.w3.org/2000/svg">
<rect width="147" height="52" rx="20" fill="#262A2D"/>
<path d="M29.7828 31.5625C28.8818 31.9062 27.9104 32.0781 26.8688 32.0781C22.8219 32.0781 20.7984 30.138 20.7984 26.2578C20.7984 22.5859 22.7516 20.75 26.6578 20.75C27.7776 20.75 28.8193 20.9062 29.7828 21.2188V22.4688C28.8193 22.1042 27.8297 21.9219 26.8141 21.9219C23.7672 21.9219 22.2438 23.3672 22.2438 26.2578C22.2438 29.3568 23.7438 30.9062 26.7438 30.9062C27.2229 30.9062 27.7542 30.8438 28.3375 30.7188V26.9219H29.7828V31.5625ZM34.92 23.7969C37.2533 23.7969 38.42 24.9505 38.42 27.2578C38.42 27.5859 38.3966 27.9375 38.3497 28.3125H32.5919C32.5919 29.9896 33.571 30.8281 35.5294 30.8281C36.4617 30.8281 37.2898 30.724 38.0138 30.5156V31.6875C37.2898 31.8958 36.4096 32 35.3731 32C32.5554 32 31.1466 30.6016 31.1466 27.8047C31.1466 25.1328 32.4044 23.7969 34.92 23.7969ZM32.5919 27.1094H37.0294C36.9981 25.6719 36.295 24.9531 34.92 24.9531C33.4617 24.9531 32.6856 25.6719 32.5919 27.1094ZM39.8853 22.4688H40.7916L41.1041 23.7969H43.3228V24.9688H41.3306V29.6797C41.3306 30.4453 41.6614 30.8281 42.3228 30.8281H43.3228V32H41.9478C40.5728 32 39.8853 31.263 39.8853 29.7891V22.4688ZM48.1128 31.6094V30.2812C49.2847 30.6979 50.5503 30.9062 51.9097 30.9062C53.8316 30.9062 54.7925 30.2031 54.7925 28.7969C54.7925 27.599 54.0842 27 52.6675 27H51.23C48.8915 27 47.7222 25.9844 47.7222 23.9531C47.7222 21.8177 49.2196 20.75 52.2144 20.75C53.5165 20.75 54.7274 20.9062 55.8472 21.2188V22.5469C54.7274 22.1302 53.5165 21.9219 52.2144 21.9219C50.1831 21.9219 49.1675 22.599 49.1675 23.9531C49.1675 25.151 49.855 25.75 51.23 25.75H52.6675C55.0477 25.75 56.2378 26.7656 56.2378 28.7969C56.2378 30.9844 54.7951 32.0781 51.9097 32.0781C50.5503 32.0781 49.2847 31.9219 48.1128 31.6094ZM57.7109 22.4688H58.6172L58.9297 23.7969H61.1484V24.9688H59.1562V29.6797C59.1562 30.4453 59.487 30.8281 60.1484 30.8281H61.1484V32H59.7734C58.3984 32 57.7109 31.263 57.7109 29.7891V22.4688ZM62.1216 29.5234C62.1216 27.8411 63.2309 27 65.4497 27C66.1632 27 66.8768 27.0521 67.5903 27.1562V26.3828C67.5903 25.4401 66.8533 24.9688 65.3794 24.9688C64.5356 24.9688 63.671 25.099 62.7856 25.3594V24.1875C63.671 23.9271 64.5356 23.7969 65.3794 23.7969C67.8169 23.7969 69.0356 24.6458 69.0356 26.3438V32H68.2231L67.7231 31.1875C66.9054 31.7292 66.0148 32 65.0513 32C63.0981 32 62.1216 31.1745 62.1216 29.5234ZM65.4497 28.1719C64.1945 28.1719 63.5669 28.6146 63.5669 29.5C63.5669 30.3854 64.0617 30.8281 65.0513 30.8281C66.0513 30.8281 66.8976 30.5625 67.5903 30.0312V28.3281C66.8768 28.224 66.1632 28.1719 65.4497 28.1719ZM70.9072 32V23.7969H71.8838L72.1416 24.8438C72.8603 24.1458 73.7249 23.7969 74.7353 23.7969V25C73.7561 25 72.9619 25.3464 72.3525 26.0391V32H70.9072ZM75.7084 22.4688H76.6147L76.9272 23.7969H79.1459V24.9688H77.1538V29.6797C77.1538 30.4453 77.4845 30.8281 78.1459 30.8281H79.1459V32H77.7709C76.3959 32 75.7084 31.263 75.7084 29.7891V22.4688ZM83.8925 23.7969C86.2258 23.7969 87.3925 24.9505 87.3925 27.2578C87.3925 27.5859 87.3691 27.9375 87.3222 28.3125H81.5644C81.5644 29.9896 82.5435 30.8281 84.5019 30.8281C85.4342 30.8281 86.2623 30.724 86.9863 30.5156V31.6875C86.2623 31.8958 85.3821 32 84.3456 32C81.5279 32 80.1191 30.6016 80.1191 27.8047C80.1191 25.1328 81.3769 23.7969 83.8925 23.7969ZM81.5644 27.1094H86.0019C85.9706 25.6719 85.2675 24.9531 83.8925 24.9531C82.4342 24.9531 81.6581 25.6719 81.5644 27.1094ZM94.3656 25.4688C93.7823 25.1875 93.1156 25.0469 92.3656 25.0469C90.7146 25.0469 89.8891 25.9245 89.8891 27.6797C89.8891 29.7578 90.7146 30.7969 92.3656 30.7969C93.1156 30.7969 93.7823 30.6953 94.3656 30.4922V25.4688ZM95.8109 31.5078C94.8161 31.8359 93.5896 32 92.1312 32C89.6885 32 88.4672 30.5781 88.4672 27.7344C88.4672 25.1094 89.7641 23.7969 92.3578 23.7969C93.0661 23.7969 93.7354 23.9271 94.3656 24.1875V20.8281H95.8109V31.5078Z" fill="white"/>
<path d="M125.923 25.4109L120.09 19.5776C119.933 19.4258 119.722 19.3418 119.504 19.3437C119.285 19.3456 119.076 19.4332 118.922 19.5877C118.767 19.7422 118.679 19.9512 118.678 20.1697C118.676 20.3882 118.76 20.5987 118.911 20.7559L123.322 25.1667H108.667C108.446 25.1667 108.234 25.2545 108.078 25.4108C107.922 25.5671 107.834 25.779 107.834 26.0001C107.834 26.2211 107.922 26.433 108.078 26.5893C108.234 26.7456 108.446 26.8334 108.667 26.8334H123.322L118.911 31.2442C118.832 31.3211 118.768 31.413 118.725 31.5147C118.681 31.6164 118.658 31.7257 118.657 31.8364C118.656 31.947 118.677 32.0568 118.719 32.1592C118.761 32.2616 118.823 32.3546 118.901 32.4329C118.979 32.5111 119.072 32.573 119.175 32.6149C119.277 32.6568 119.387 32.6779 119.498 32.6769C119.608 32.676 119.718 32.653 119.819 32.6093C119.921 32.5656 120.013 32.5021 120.09 32.4226L125.923 26.5892C126.079 26.4329 126.167 26.221 126.167 26.0001C126.167 25.7791 126.079 25.5672 125.923 25.4109Z" fill="white"/>
</svg>
