<svg width="543" height="52" viewBox="0 0 543 52" fill="none" xmlns="http://www.w3.org/2000/svg">
<rect width="543" height="52" rx="20" fill="#3F7D58"/>
<path d="M254.579 31.6094V30.2812C255.751 30.6979 257.017 30.9062 258.376 30.9062C260.298 30.9062 261.259 30.2031 261.259 28.7969C261.259 27.599 260.551 27 259.134 27H257.697C255.358 27 254.189 25.9844 254.189 23.9531C254.189 21.8177 255.686 20.75 258.681 20.75C259.983 20.75 261.194 20.9062 262.314 21.2188V22.5469C261.194 22.1302 259.983 21.9219 258.681 21.9219C256.65 21.9219 255.634 22.599 255.634 23.9531C255.634 25.151 256.322 25.75 257.697 25.75H259.134C261.514 25.75 262.704 26.7656 262.704 28.7969C262.704 30.9844 261.262 32.0781 258.376 32.0781C257.017 32.0781 255.751 31.9219 254.579 31.6094ZM267.56 23.7969C269.894 23.7969 271.06 24.9505 271.06 27.2578C271.06 27.5859 271.037 27.9375 270.99 28.3125H265.232C265.232 29.9896 266.211 30.8281 268.17 30.8281C269.102 30.8281 269.93 30.724 270.654 30.5156V31.6875C269.93 31.8958 269.05 32 268.013 32C265.196 32 263.787 30.6016 263.787 27.8047C263.787 25.1328 265.045 23.7969 267.56 23.7969ZM265.232 27.1094H269.67C269.638 25.6719 268.935 24.9531 267.56 24.9531C266.102 24.9531 265.326 25.6719 265.232 27.1094ZM272.526 32V23.7969H273.502L273.76 24.8438C274.599 24.1458 275.52 23.7969 276.526 23.7969C278.573 23.7969 279.596 24.8151 279.596 26.8516V32H278.151V26.8281C278.151 25.6094 277.544 25 276.33 25C275.502 25 274.716 25.3464 273.971 26.0391V32H272.526ZM286.975 25.4688C286.392 25.1875 285.725 25.0469 284.975 25.0469C283.324 25.0469 282.499 25.9245 282.499 27.6797C282.499 29.7578 283.324 30.7969 284.975 30.7969C285.725 30.7969 286.392 30.6953 286.975 30.4922V25.4688ZM288.421 31.5078C287.426 31.8359 286.199 32 284.741 32C282.298 32 281.077 30.5781 281.077 27.7344C281.077 25.1094 282.374 23.7969 284.967 23.7969C285.676 23.7969 286.345 23.9271 286.975 24.1875V20.8281H288.421V31.5078Z" fill="white"/>
</svg>
