<svg width="112" height="38" viewBox="0 0 112 38" fill="none" xmlns="http://www.w3.org/2000/svg">
<rect x="0.5" y="0.5" width="111" height="37" rx="18.5" fill="#3F7D58"/>
<rect x="0.5" y="0.5" width="111" height="37" rx="18.5" stroke="#3F7D58"/>
<path d="M11.1719 24.6094V23.2812C12.3438 23.6979 13.6094 23.9062 14.9688 23.9062C16.8906 23.9062 17.8516 23.2031 17.8516 21.7969C17.8516 20.599 17.1432 20 15.7266 20H14.2891C11.9505 20 10.7812 18.9844 10.7812 16.9531C10.7812 14.8177 12.2786 13.75 15.2734 13.75C16.5755 13.75 17.7865 13.9062 18.9062 14.2188V15.5469C17.7865 15.1302 16.5755 14.9219 15.2734 14.9219C13.2422 14.9219 12.2266 15.599 12.2266 16.9531C12.2266 18.151 12.9141 18.75 14.2891 18.75H15.7266C18.1068 18.75 19.2969 19.7656 19.2969 21.7969C19.2969 23.9844 17.8542 25.0781 14.9688 25.0781C13.6094 25.0781 12.3438 24.9219 11.1719 24.6094ZM22.8516 16.7969V25H21.4062V16.7969H22.8516ZM22.8516 13.8281V15.1953H21.4062V13.8281H22.8516ZM30.8438 18.1875C30.349 18.0625 29.737 18 29.0078 18C27.263 18 26.3906 18.9453 26.3906 20.8359C26.3906 22.7786 27.2161 23.75 28.8672 23.75C29.6172 23.75 30.276 23.6094 30.8438 23.3281V18.1875ZM32.2891 25C32.2891 26.9792 31.0312 27.9688 28.5156 27.9688C27.5052 27.9688 26.6094 27.8385 25.8281 27.5781V26.4062C26.625 26.6667 27.526 26.7969 28.5312 26.7969C30.0729 26.7969 30.8438 26.1979 30.8438 25V24.6094C30.2292 24.8698 29.5677 25 28.8594 25C26.2656 25 24.9688 23.6172 24.9688 20.8516C24.9688 18.1484 26.3359 16.7969 29.0703 16.7969C30.1797 16.7969 31.2526 16.9089 32.2891 17.1328V25ZM34.6406 25V16.7969H35.6172L35.875 17.8438C36.7135 17.1458 37.6354 16.7969 38.6406 16.7969C40.6875 16.7969 41.7109 17.8151 41.7109 19.8516V25H40.2656V19.8281C40.2656 18.6094 39.6589 18 38.4453 18C37.6172 18 36.8307 18.3464 36.0859 19.0391V25H34.6406ZM55.0391 16.7969V25H54.0469L53.7969 23.9531C52.8021 24.651 51.8021 25 50.7969 25C48.9115 25 47.9688 23.9818 47.9688 21.9453V16.7969H49.4141V21.9688C49.4141 23.1875 50.0182 23.7969 51.2266 23.7969C52.0547 23.7969 52.8438 23.4505 53.5938 22.7578V16.7969H55.0391ZM58.8359 23.3281C59.4036 23.6094 60.0365 23.75 60.7344 23.75C62.4375 23.75 63.2891 22.7266 63.2891 20.6797C63.2891 18.8932 62.4427 18 60.75 18C60.0208 18 59.3828 18.0625 58.8359 18.1875V23.3281ZM57.3906 17.1328C58.4792 16.9089 59.6042 16.7969 60.7656 16.7969C63.3958 16.7969 64.7109 18.0964 64.7109 20.6953C64.7109 23.5651 63.388 25 60.7422 25C60.0859 25 59.4505 24.8698 58.8359 24.6094V27.9688H57.3906V17.1328ZM78.0391 13.8281V15H72.1797V18.75H77.7656V19.9219H72.1797V25H70.7344V13.8281H78.0391ZM79.6094 25V16.7969H80.5859L80.8438 17.8438C81.5625 17.1458 82.4271 16.7969 83.4375 16.7969V18C82.4583 18 81.6641 18.3464 81.0547 19.0391V25H79.6094ZM88.2734 16.7969C90.6068 16.7969 91.7734 17.9505 91.7734 20.2578C91.7734 20.5859 91.75 20.9375 91.7031 21.3125H85.9453C85.9453 22.9896 86.9245 23.8281 88.8828 23.8281C89.8151 23.8281 90.6432 23.724 91.3672 23.5156V24.6875C90.6432 24.8958 89.763 25 88.7266 25C85.9089 25 84.5 23.6016 84.5 20.8047C84.5 18.1328 85.7578 16.7969 88.2734 16.7969ZM85.9453 20.1094H90.3828C90.3516 18.6719 89.6484 17.9531 88.2734 17.9531C86.8151 17.9531 86.0391 18.6719 85.9453 20.1094ZM97.1016 16.7969C99.4349 16.7969 100.602 17.9505 100.602 20.2578C100.602 20.5859 100.578 20.9375 100.531 21.3125H94.7734C94.7734 22.9896 95.7526 23.8281 97.7109 23.8281C98.6432 23.8281 99.4714 23.724 100.195 23.5156V24.6875C99.4714 24.8958 98.5911 25 97.5547 25C94.737 25 93.3281 23.6016 93.3281 20.8047C93.3281 18.1328 94.5859 16.7969 97.1016 16.7969ZM94.7734 20.1094H99.2109C99.1797 18.6719 98.4766 17.9531 97.1016 17.9531C95.6432 17.9531 94.8672 18.6719 94.7734 20.1094Z" fill="white"/>
</svg>
